<svg xmlns="http://www.w3.org/2000/svg" viewBox="0 0 24 24" fill="none">
  <path d="M12 2.8a9.2 9.2 0 0 0-2.9 17.9c.5.1.7-.2.7-.5v-1.8c-2.8.6-3.4-1.2-3.4-1.2-.5-1.2-1.1-1.5-1.1-1.5-.9-.6.1-.6.1-.6 1 .1 1.6 1 1.6 1 .9 1.6 2.4 1.1 3 .9.1-.7.4-1.1.7-1.3-2.3-.3-4.7-1.1-4.7-5.1 0-1.1.4-2 1-2.8-.1-.3-.4-1.3.1-2.8 0 0 .9-.3 2.9 1.1A10 10 0 0 1 12 5.9a10 10 0 0 1 2.6.4c2-1.4 2.9-1.1 2.9-1.1.5 1.5.2 2.5.1 2.8.7.8 1 1.7 1 2.8 0 4-2.4 4.8-4.7 5.1.4.3.7 1 .7 2v2.3c0 .3.2.6.7.5A9.2 9.2 0 0 0 12 2.8z"
        stroke="currentColor" stroke-width="1.75" stroke-linecap="round" stroke-linejoin="round"/>
</svg>